<?xml version="1.0" encoding="UTF-8"?>
<svg id="Layer_2" data-name="Layer 2" xmlns="http://www.w3.org/2000/svg" viewBox="0 0 342.91 330.56">
  <defs>
    <style>
      .cls-1 {
        fill: #a8b0b8;
      }

      .cls-1, .cls-2, .cls-3, .cls-4, .cls-5, .cls-6, .cls-7, .cls-8, .cls-9, .cls-10, .cls-11, .cls-12, .cls-13, .cls-14, .cls-15, .cls-16, .cls-17, .cls-18, .cls-19, .cls-20 {
        stroke-width: 0px;
      }

      .cls-2 {
        fill: #b7b7b7;
      }

      .cls-3 {
        fill: #625c5b;
      }

      .cls-4 {
        fill: #494a45;
      }

      .cls-5 {
        fill: #707a88;
      }

      .cls-6 {
        fill: #201e18;
      }

      .cls-7 {
        fill: #241c1a;
      }

      .cls-8 {
        fill: #686c68;
      }

      .cls-9 {
        fill: #32312c;
      }

      .cls-10 {
        fill: #8d9aa7;
      }

      .cls-11 {
        fill: #3e322b;
      }

      .cls-12 {
        fill: #fdfdfe;
      }

      .cls-13 {
        fill: #7c7d7a;
      }

      .cls-14 {
        fill: #4f4845;
      }

      .cls-15 {
        fill: #8c6f6c;
      }

      .cls-16 {
        fill: #e4e4e4;
      }

      .cls-17 {
        fill: #3e393d;
      }

      .cls-18 {
        fill: #0f0e0e;
      }

      .cls-19 {
        fill: #4d3c3b;
      }

      .cls-20 {
        fill: #47505c;
      }
    </style>
  </defs>
  <g id="Layer_1-2" data-name="Layer 1">
    <g>
      <path class="cls-16" d="M240.47,19.56c-7.98-2.73-15.65-6.55-23.75-9-3-.91-25.14-6.43-26.5-6.5-6.08-.3-22.35,6.06-29.75,6.5,5.37-2.46,5-1.39,5.25-1.5,1.82-.84.44-2.2,1-2.5,1.13-.6,18.96-5.91,20-6,10.38-.94,45.5,10.92,55.75,17.75l-2,1.25Z"/>
      <path class="cls-16" d="M80.47,69.56c-.28,1.02-8.2,14.56-10,18.75-9.89,23.01-12.71,45.12-15,69.75-1.58-4.29.29-14.41,1.5-19.75-3.95-3.87,1.1-22.99,3-30,3.61-13.29,10.37-29.41,18.25-40.75l2.25,2Z"/>
      <path class="cls-16" d="M138.47,19.06c-1.52.51-4.4,2.47-4.75,2.5-1.92.17-29.01-5.22-35.25-13.5,5.91,1.64,11.43,4.68,17.25,6.5,3.51,1.1,10.54,1.86,14.5,3,2.62.76.42,3.62,8.25,1.5Z"/>
      <path class="cls-2" d="M.97,303.06c-.03-.1-1.52-1.28-.75-2,1.11.66.62,1.8.75,2Z"/>
      <g>
        <path class="cls-2" d="M148.47,327.06c-9.45-2.39-8.75,0-9.25,0-11.83.15-24.01-1.84-35.75-2.25v1.25c-23.01-3.91-44.37-6.46-60.75-25,11.79-4.89,24.22-6.62,36.75-8.5-.05,1.87-6.42,1.66-10.25,2.5-2.93.64-20.82,5.4-20.75,8.25.04,1.83,19.03,8.03,21.75,8.75,8.72,2.32,46.58,8.32,55.5,9,.93.07,8.42-.22,10.25-.5,8.58,2.32,28.47,2.3,35.5-3.5,4.33.61,8.7-.15,13-.5l-.25,2c9.83-.48,19.5,1.37,29.25,2,9.5.61,25.13,3.26,33.75-2,6.15-3.75,16.31-19.94,18.25-27,19.5,3.84,40.69,6.1,58.25,15-58.48,29.23-113.56,17.38-175.25,20.5Z"/>
        <path class="cls-8" d="M110.47,288.56c.24,1.57.65,2.26,1,3.5l-47.75,9.5c1.15,1.34,3.18,1.54,4.75,2,6.49,1.91,15.59,3.53,22.5,5,11.21,2.39,22.49,5.5,34,5.5,3.55,3.37,6.18,5.19,11,6.5-1.83.28-9.32.57-10.25.5-8.92-.68-46.78-6.68-55.5-9-2.72-.72-21.71-6.92-21.75-8.75-.07-2.85,17.82-7.61,20.75-8.25,3.83-.84,10.2-.63,10.25-2.5,10.28-1.55,20.75-2.18,31-4Z"/>
        <path class="cls-2" d="M148.47,327.06c-4.62.23-12.97,1.55-20.25,2-.37.02-1.52,1.49-2,1.5-1.16.01-18.72-3.81-22.75-4.5v-1.25c11.74.41,23.92,2.4,35.75,2.25.5,0-.2-2.39,9.25,0Z"/>
        <path class="cls-4" d="M115.47,301.56c-8.44,2.57-22.37,3.48-31.25,3-4.32-.23-15.01-3.63-15.75-1-1.57-.46-3.6-.66-4.75-2l47.75-9.5c.92,3.28,2.35,6.53,4,9.5Z"/>
        <path class="cls-18" d="M183.47,300.06c-3.16,3.04,4.92.7,11,1.5.73.1.97-.48,1.5-.25,1.02.44,5.92,8.29,7,9.75h-27.5c2.86-3.95,4.38-7.75,8-11Z"/>
        <path class="cls-9" d="M121.47,310.06c-9.53.61-24.88-5.3-30.5-1.5-6.91-1.47-16.01-3.09-22.5-5,.74-2.63,11.43.77,15.75,1,8.88.48,22.81-.43,31.25-3,1.6,2.89,3.89,5.94,6,8.5Z"/>
        <path class="cls-4" d="M202.97,311.06c1.58,2.12,1.38,3.35,1.5,3.5-6.66.81-13.31,1.45-20,2-4.3.35-8.67,1.11-13,.5.54-.45,3.16-4.85,4-6h27.5Z"/>
        <path class="cls-6" d="M121.47,310.06c1.07,1.3,2.29,2.85,3.5,4-11.51,0-22.79-3.11-34-5.5,5.62-3.8,20.97,2.11,30.5,1.5Z"/>
        <path class="cls-13" d="M204.47,314.56c2.69,3.54,5.02,4.35,9,6-9.75-.63-19.42-2.48-29.25-2l.25-2c6.69-.55,13.34-1.19,20-2Z"/>
      </g>
      <path class="cls-16" d="M194.47,301.56c-6.08-.8-14.16,1.54-11-1.5.64-.58,5.39-4.53,5.75-4.5.43.04,6.55,5.74,5.25,6Z"/>
      <g>
        <path class="cls-18" d="M265.47,291.56c-1.94,7.06-12.1,23.25-18.25,27-8.62,5.26-24.25,2.61-33.75,2-3.98-1.65-6.31-2.46-9-6-.12-.15.08-1.38-1.5-3.5-1.08-1.46-5.98-9.31-7-9.75-.53-.23-.77.35-1.5.25,1.3-.26-4.82-5.96-5.25-6-.36-.03-5.11,3.92-5.75,4.5-3.62,3.25-5.14,7.05-8,11-.84,1.15-3.46,5.55-4,6-7.03,5.8-26.92,5.82-35.5,3.5-4.82-1.31-7.45-3.13-11-6.5-1.21-1.15-2.43-2.7-3.5-4-2.11-2.56-4.4-5.61-6-8.5-1.65-2.97-3.08-6.22-4-9.5-.35-1.24-.76-1.93-1-3.5-1.52-9.93.67-13.21,5-21.75-41.28-15.82-46.51-44.69-49.5-46.5-1.17-.71-13.54.81-23.5-12-14.26-18.34-7.57-51.59-1.75-50.25,1.22.28,5.46,11.07,13.5,15.5.92-5.13.77-10.33,1.25-15.5,2.29-24.63,5.11-46.74,15-69.75,1.8-4.19,9.72-17.73,10-18.75.59-2.14.6-14.32,1.5-20.25,1.6-10.59,5.31-18.98,5.5-20,.15-.81-1.07-4.94-.5-8,6-32.17,7.11-19.07,11.5-13.25,6.24,8.28,33.33,13.67,35.25,13.5.35-.03,3.23-1.99,4.75-2.5,7.28-2.47,15.01-5.31,22-8.5,7.4-.44,23.67-6.8,29.75-6.5,1.36.07,23.5,5.59,26.5,6.5,8.1,2.45,15.77,6.27,23.75,9,.2.07,2.3,1.77,3.75,2,16.04-5.45,30.64-3.19,38-21.5,5.43-1.57,7.12,25.99,7.75,29.25.64,3.35,3.07,10.17,4,15.5,1.5,8.66,2.21,23.74,2.5,25,.31,1.35,9.71,19.05,12,25,9.5,24.65,12.98,51.24,13.5,77.5,6.06,1.28,11.9-14.73,15.25-13.75,11.43,16.54,4.89,48.29-13,58-6.7,3.64-11.44,3.21-12,3.5-3.15,1.62-8.08,30.97-50.25,47.25,4.64,10.14,6.56,13.12,3.5,24.25Z"/>
        <g>
          <g>
            <path class="cls-7" d="M335.47,178.06c.68,6.75-.55,13.36-1.5,20-4.52,8.51-14.71,16.67-15.5,15.25,3.75-9.36,2.26-19.53,3-29.25,5.03-1.29,8.82-5.58,14-6Z"/>
            <path class="cls-17" d="M335.47,178.06c-5.18.42-8.97,4.71-14,6,.61-8.04,1.25-3.9,5.25-7,2.59-2.01,4.49-4.27,6.75-6.5.46,2.28,1.78,5.28,2,7.5Z"/>
            <path class="cls-17" d="M333.97,198.06c.95-6.64,2.18-13.25,1.5-20-.22-2.22-1.54-5.22-2-7.5.81-.79,1.71-3.1,2.5-2.25,3.63,11.81,3.82,18.78-2,29.75Z"/>
          </g>
          <g>
            <path class="cls-17" d="M286.97,44.06c-.42,1.2-4.47,8.01-5.25,8-2.95-3.03-5.59-6.17-8.75-9l10.5-13c.07,2.21,3.03,10.73,3.5,14Z"/>
            <path class="cls-17" d="M288.72,45.56c1.78-.25,2.57,16.57,2.5,19-6.57-11.41-11.37-7.7-2.5-19Z"/>
            <g>
              <path class="cls-17" d="M283.47,30.06l-10.5,13c-7.2-6.45-14.89-11.99-23-17.25,11.95-3.1,24.11-5.14,32.25-15.25,4.98,12.45,1.19,17.66,1.25,19.5Z"/>
              <path class="cls-5" d="M286.97,44.06c-.47-3.27-3.43-11.79-3.5-14,3.17-1.1,5.19,9.21,3.5,14Z"/>
            </g>
          </g>
          <g>
            <path class="cls-18" d="M199.97,279.06c9.07,4.68-8.53,4.67-8.5,11.5-17.22.31-30.69,6.26-47.75,6.5,10.18,4.39,21.57,3.5,32,.5,2.78.29,1.27,2.83-2.5,4-1.26.39-24.68,4.51-26,4.5-5.43-.04-17.35-4.72-17.25-2.25,15.51,10.17,41.67-.76,43,1-8.31,13.34-36.7,12.63-47,2.5-9.62-9.47-14.85-25.59-7.5-38,2.11-2.13,10.53,1.75,13.25,2.25,18.02,3.29,36.24,5.62,54.5,7,4.13.31,10.49-1.18,13.75.5Z"/>
            <path class="cls-7" d="M256.47,268.56l5.5,14c-.43,10.35-9.01,26.9-19.25,30.5-11.37,3.99-13.73-3.72-21.75-9.75-.85-3.07,15.64,1.01,7.25-3.75-.5-.28-.95.53-1,.5-1.46-.76-6.15-3.84-6.5-4-.54-.24-.95.52-1,.5-12.97-5.6-13.21-6.27-28.25-6-.03-6.83,17.57-6.82,8.5-11.5,13.84.8,53.67-11.04,56.5-10.5Z"/>
            <path class="cls-3" d="M261.97,282.56l-5.5-14c2.35.45,5.71,8.9,5.5,14Z"/>
          </g>
          <g>
            <path class="cls-19" d="M43.97,174.06c.08,9.24-1.53,12.2-2.5,1l2.5-1Z"/>
            <path class="cls-15" d="M43.97,174.06l-2.5,1c-.09-1,.69-4.09.25-6.5,1.65-.12,2.24,4.7,2.25,5.5Z"/>
            <path class="cls-14" d="M50.22,177.06c3.26,1.32,4.97,2.85,4.5,6.5l-4.5-6.5Z"/>
          </g>
          <g>
            <path class="cls-7" d="M91.72,33.56l9.75,10.75-7.25,7.25c-5.02-7.53-4.72-9.22-2.5-18Z"/>
            <g>
              <path class="cls-11" d="M95.22,11.06c9.16,13.07,30.79,13,30.75,14.75-3.58.73-19.94,15.25-21.25,15.25-.96,0-12.55-13.31-12.75-14.25-.24-1.16,2.42-13.03,3.25-15.75Z"/>
              <path class="cls-7" d="M96.72,22.06c2.32-.46,11.96,6.84,11.75,8.25-4.84,5.62-9.04-4.47-11.75-8.25Z"/>
            </g>
          </g>
          <g>
            <path class="cls-16" d="M190.97,26.56c6.98,15.2,7.93,7.54,11,11.75,1.41,1.94.85,7.35,6.75,12.75,6.36,5.82,29.65,11.18,37.25,21.25-1.58,9.53-16.68,12.64-19.25,14.75-1.53,1.25-2.05,3.49-3.25,5-.15.19.27,1.21-.25,1.5-.35.2-1.92-1.35-7,3-1.92,1.65-11.09,12.53-4.75,12.5-9.43,18.43-5.04,47.24,15,54.5-.82,1.78-3.11.85-2,2.75,14.25,4.72,31.78,4.9,41.25-8.75,21.52,15.34,48.27,29,39.75,60-2.61,5.43-6.78,12.72-11,17-3.22,3.27-9.32,7.34-13.5,9.5,3.09-4,.98-15.18,1-20.75-9.32-34.96-4.23-19.01-6.5-1-.38,3.02-2.97,15.79-5,15.75-.17-5.59-4.9-19.43-3-5.25-1.28,5.78-2.99,11.91-7.25,16.25-.08-11.26.09-12.69-6.5-22-2.08,8.45-4.18,17.76-9.5,24.5,1.41-9.4,1.51-15.36-.25-24.75h-2c1.65,12.93-9.16-5.14-10.5-8.75-2.14-5.81-2.05-13.68-2.5-14.25-.41-.52-.85.68-1.25.25-4.83-5.13-11.56-8.63-17-13-2.48-1.99-10.33-10.83-12-11.5-2.09-.83-5.94,1.04-6.75-2.5,1.96-.02,9.16,2.11,14.5-4.25,3.14-3.75,4.4-10.12.75-13.75-2,20.39-14.71,12.99-16,13-1.26,0-3.98,1.49-4.5,1.5-16.67.3-10.66-20.06-16.25-11.5-.1-.35-4.93-4.83-5.25-5-.71-.36-1.57,1.74-1.75.5,18.01-17.31,9.46-55.08-9.25-62-14.41-5.33-30.13,2.65-36.75,16-.84-1.13-2.59,1.55-4,3.5-1.5.16-1.97-.2-2-1.75-.04-2.22,10.8-27.01,11-29,.32-3.14-1.57-6.7-.5-13.5,1.25-7.92,5.3-11.84,5.5-12.5.58-1.93,3.05-23.15,1.5-25.25.69-1.39,1.84-1.2,0-2.5,10.14-5.52,21.03-9.3,31.75-13.5,4.89,19.35,3.88,19.35,2.75-.75,2.89-.83,18.56-6.15,20-5,.66.53,4.99,13.77,7.5,15.25Z"/>
            <path class="cls-10" d="M110.97,137.06c-6.04,6.74-.53,20.65,10,30,2.4,2.13,5.85,4.06,8,6-10.66-1.41-19.71-12.01-24.25-21.5-1.65.34,3.65,13.34,3.75,14.25.17,1.5-1.82,8,1,15.5,4.99,13.26,8.66-2.13,22.5,7.75,2.13,1.52,5.21,4.34,6.75,6.5,4.73-11.77,1.65.43,3.5,6l2-10.5c0,7.53,2.2,9.49,6.75,14.5,1.83,2.01,3.57,2.85,5.5,4.5.57.48,2.81,4.13,3.25,4,1.41-.41.36-9.21,2.75-1.5,6.05,19.51,17.87,25.86,24,35.25,3.53,5.41.6,8.52,4-6.75,4.3-21.46,1.26-1.88,2.75-2,1.56-6.54,3.85,3.11,8,8l2-9c3.08,5.21,5.08,7.81,10.25,11,3.92,2.42,5.71,2.35,6,2.5,3.97,2.11,4.31,1.85,4.5,2,3.13,2.48,2.28,6.65,3,7.25,1.09.9,2.82-.25,3-.25,3.06.08,5.97-.14,9-.5,10.41-1.23,19.56-4.62,29-9,3.07-1.42,11.11-4.56,13-7,4.18-2.16,10.28-6.23,13.5-9.5-18.09,28.7-72.09,37.11-103.5,37,1.86-10.04,3.84-20.24,3.25-30.5-2.03,6.37-4.61,26.66-5.75,20.25-.57-3.19.42-6.84-2.5-11l1.5,21.25c-2.48-.05-5-.37-7.5-.5-26.48-12.81-28.94-33.14-34.25-60-1.06,14.68,5.61,34.44,13.25,47-22.73-19.52-33.42-35.45-29.25-67-7.05,23.39,1.85,56.66,22.5,71,6.87,4.77,11.48,4.87,12.25,7.5-2.41-.29-4.61-.63-7-1l1.25-1c-31.43-13.49-61.47-29.62-59.5-68.5-6.3,24.88,14.98,48.31,35,60,6.42,3.75,14.42,4.47,12.75,8-4.81-1.05-12.14-2.96-16.5-5-3.01-1.41-10.24-6.76-14.25-9-2.04-1.14-7.36-1.52-15.75-8-5.02-3.87-12.22-12.31-15.5-17.75-6.36-10.54-10.52-27.83-8-15.5-2.26,2.31-4.56.74-4.5,3.75-7.24-15.16-6.45-17.85-8-33.75-.02-.22-.98-.78-1-1-3.12-36.11,4.74-77.97,23.5-109.25,1.38,1.47,6.05-3.64,9.5-7-2.89,17.75-4.41,35.73-4,53.75,3.04-6.57,6.51-13.55,12.5-18-7.77,11.51-6.98,29.45,6,36.75Z"/>
            <path class="cls-16" d="M305.47,217.56c8.52-31-18.23-44.66-39.75-60-9.47,13.65-27,13.47-41.25,8.75-1.11-1.9,1.18-.97,2-2.75,35.64,12.91,52.55-30.93,30.5-57.75-13.48-16.4-35.47-16.35-45.5,3.25-6.34.03,2.83-10.85,4.75-12.5,5.08-4.35,6.65-2.8,7-3,.52-.29.1-1.31.25-1.5,1.8,2.23,2.7-.95,4.75-1.5,5.05-1.34,8.08.62,8.5.5.5-.14,0-1.34.5-1.5,10.39-3.23,15.07-1.99,16-2.5,2.64-1.45,1.38-4.08,1.75-4.75.23-.43,3.6-2.25,3-5.5-.17-.91-9.9-14.12-10.75-14.75-.3-.22-2.19.22-2.5,0-1.51-1.08-4.22-8.54-13.5-11.5-5.4-1.72-14.51-.32-22.75-8.25-3.23-3.23-5.86-24.74-6.75-25.75-.54-.61-13.9-4.43-15.25-4.25v2.75c-.33-.79-2.14-3.87-2-4.25.12-.31,4.02-1.75,4.25-1.75,1.16,0,21.53,4.86,22.5,5.5.98.64,1.08,12.83,6,22.5.5-2.94-5.06-20.05-2.5-21,31.47,10.42,55.09,24.04,74.25,51.75l-1.25.25c-10.76-8.1-17.37-9.93-4.5-1,3.31,2.3,6.47,2.44,7.75,3.75,1.42,1.45,14.18,33.28,15.5,37.5,10.01,32.03,13.82,78.37-1,109.25Z"/>
            <path class="cls-2" d="M128.97,33.06c-3.97,8.02-25.25,39.06-20.5,46.25.4.6,4.94,2.27,5.5,4.5,1.28,5.11-6.67,32.46-6,40,1.95-1.55,2.93-5.19,5.5-8.75,1.41-1.95,3.16-4.63,4-3.5-3.6,7.27-5.45,16.92-5,25-.44-.1-1.27.25-1.5.5-12.98-7.3-13.77-25.24-6-36.75-5.99,4.45-9.46,11.43-12.5,18-.41-18.02,1.11-36,4-53.75,1.61-1.57,5.45-5.28,6.5-6.5,1.7-1.97,6.35-8.21,7-10.5,2.78-.42-2.24-.86-2.5-1.25,6.16-6.51,13.64-11.48,21.5-15.75,1.84,1.3.69,1.11,0,2.5Z"/>
            <path class="cls-16" d="M223.47,92.06c1.2-1.51,1.72-3.75,3.25-5,2.57-2.11,17.67-5.22,19.25-14.75-7.6-10.07-30.89-15.43-37.25-21.25-5.9-5.4-5.34-10.81-6.75-12.75-3.07-4.21-4.02,3.45-11-11.75-1.31-2.85-2.98-7.86-4.5-11.5v-2.75c1.35-.18,14.71,3.64,15.25,4.25.89,1.01,3.52,22.52,6.75,25.75,8.24,7.93,17.35,6.53,22.75,8.25,9.28,2.96,11.99,10.42,13.5,11.5.31.22,2.2-.22,2.5,0,.85.63,10.58,13.84,10.75,14.75.6,3.25-2.77,5.07-3,5.5-.37.67.89,3.3-1.75,4.75-.93.51-5.61-.73-16,2.5-.5.16,0,1.36-.5,1.5-.42.12-3.45-1.84-8.5-.5-2.05.55-2.95,3.73-4.75,1.5Z"/>
            <path class="cls-5" d="M100.47,245.06c-2.71,2.06-3.66,1.04-2,3-11.13-7.82-20.14-20.22-26-32.5-.06-3.01,2.24-1.44,4.5-3.75-2.52-12.33,1.64,4.96,8,15.5,3.28,5.44,10.48,13.88,15.5,17.75Z"/>
            <path class="cls-5" d="M157.47,268.56c-3.47-.53-7.04-.75-10.5-1.5,1.67-3.53-6.33-4.25-12.75-8-20.02-11.69-41.3-35.12-35-60-1.97,38.88,28.07,55.01,59.5,68.5l-1.25,1Z"/>
            <path class="cls-5" d="M130.47,262.06c-6.84-.24-28.92-8.53-32-14-1.66-1.96-.71-.94,2-3,8.39,6.48,13.71,6.86,15.75,8,4.01,2.24,11.24,7.59,14.25,9Z"/>
            <path class="cls-5" d="M190.97,271.56c-1.17,0-2.33.02-3.5,0l-1.5-21.25c2.92,4.16,1.93,7.81,2.5,11,1.14,6.41,3.72-13.88,5.75-20.25.59,10.26-1.39,20.46-3.25,30.5Z"/>
            <path class="cls-1" d="M102.97,58.06l-10.5,5c4.03-5.53,10.73-15.33,17.5-15.5-.65,2.29-5.3,8.53-7,10.5Z"/>
            <path class="cls-20" d="M102.97,58.06c-1.05,1.22-4.89,4.93-6.5,6.5-3.45,3.36-8.12,8.47-9.5,7,1.72-2.87,3.53-5.79,5.5-8.5l10.5-5Z"/>
            <path class="cls-2" d="M231.47,218.06c1.34,3.61,12.15,21.68,10.5,8.75h2c1.76,9.39,1.66,15.35.25,24.75,5.32-6.74,7.42-16.05,9.5-24.5,6.59,9.31,6.42,10.74,6.5,22,4.26-4.34,5.97-10.47,7.25-16.25-1.9-14.18,2.83-.34,3,5.25.14,4.72-1.2,8.51-2.5,13-9.44,4.38-18.59,7.77-29,9,.7-1.66,5.1-19.43,2.25-18.5l-11.25,19c-.18,0-1.91,1.15-3,.25-.72-.6.13-4.77-3-7.25,1.64-1.1-1.3-6.61-4.5-4.5-.65-6.5-1.29-13.03-2.25-19.5l-3.75,19.5c-5.17-3.19-7.17-5.79-10.25-11l-2,9c-4.15-4.89-6.44-14.54-8-8-1.49.12,1.55-19.46-2.75,2-2.77.45-3.08-6.18-4-7.75-2.32-3.96-19.79-14.9-24-20.75-2.39-7.71-1.34,1.09-2.75,1.5-.44.13-2.68-3.52-3.25-4-1.74-4.61-1.37-9.19-1.75-14-1.31,4.38-4.14,7.53-3.75,9.5-4.55-5.01-6.76-6.97-6.75-14.5l-2,10.5c-1.85-5.57,1.23-17.77-3.5-6-1.54-2.16-4.62-4.98-6.75-6.5-1.79-2.83.7-1.8,1-3.75,1.22-7.9-.41-9-4-12.25-2.15-1.94-5.6-3.87-8-6,7.33-2.18,13.47,2.59,23.25,2,.39-.02.11-.97.5-1,11.27-.9,5.53-.24,9.5,2,.23.13,2.56.22,3,.5.24.15,3.73,3.92,4,4,1.68.48,3-4.49,4.75-.75-3.64,2.59,2.61,3.72,3.5,6,.19.49-.58,9.57-.5,10.5.05.54,2.09,2.93,2,3.5-.1.63-1.95,1.38-2,1.5-.67,1.71,3.46,4.67,4.5,6,.69.88-1.99,2.64,8,7.5,3.72,9.5,1.44,8.47,1.5,9,1.18,9.79,11.61,2.58,13.75,4.25,1.52,1.19,4.14,12.4,9.5,8,1.46,5.01.49-8.61,2-9.5,6.69-2.2,11.47,4.98,18,4.5,2.22-.97.08-11.41,5.25-7Z"/>
            <path class="cls-2" d="M112.47,136.56c1.64,29.6,33.27,38.05,51,21,.18,1.24,1.04-.86,1.75-.5.32.17,5.15,4.65,5.25,5,.2.68-1.04,8.01,5.25,12.5,6.55,4.68,12.8,1.47,13.5,1.5,1.62.07,2.37,1,2.75,1,.81,3.54,4.66,1.67,6.75,2.5,1.67.67,9.52,9.51,12,11.5,5.44,4.37,12.17,7.87,17,13,.4.43.84-.77,1.25-.25.45.57.36,8.44,2.5,14.25-5.17-4.41-3.03,6.03-5.25,7-6.53.48-11.31-6.7-18-4.5-1.51.89-.54,14.51-2,9.5-5.36,4.4-7.98-6.81-9.5-8-2.14-1.67-12.57,5.54-13.75-4.25-.06-.53,2.22.5-1.5-9-9.99-4.86-7.31-6.62-8-7.5-1.04-1.33-5.17-4.29-4.5-6,.05-.12,1.9-.87,2-1.5.09-.57-1.95-2.96-2-3.5-.08-.93.69-10.01.5-10.5-.89-2.28-7.14-3.41-3.5-6-1.75-3.74-3.07,1.23-4.75.75-.27-.08-3.76-3.85-4-4-.44-.28-2.77-.37-3-.5-3.97-2.24,1.77-2.9-9.5-2-.39.03-.11.98-.5,1-9.78.59-15.92-4.18-23.25-2-10.53-9.35-16.04-23.26-10-30,.23-.25,1.06-.6,1.5-.5Z"/>
            <path class="cls-2" d="M113.47,115.06c-2.57,3.56-3.55,7.2-5.5,8.75-.67-7.54,7.28-34.89,6-40-.56-2.23-5.1-3.9-5.5-4.5-4.75-7.19,16.53-38.23,20.5-46.25,1.55,2.1-.92,23.32-1.5,25.25-.2.66-4.25,4.58-5.5,12.5-1.07,6.8.82,10.36.5,13.5-.2,1.99-11.04,26.78-11,29,.03,1.55.5,1.91,2,1.75Z"/>
            <path class="cls-2" d="M280.97,244.06c-1.89,2.44-9.93,5.58-13,7,1.3-4.49,2.64-8.28,2.5-13,2.03.04,4.62-12.73,5-15.75,2.27-18.01-2.82-33.96,6.5,1-.02,5.57,2.09,16.75-1,20.75Z"/>
            <path class="cls-18" d="M191.97,177.06c-.38,0-1.13-.93-2.75-1-.7-.03-6.95,3.18-13.5-1.5-6.29-4.49-5.05-11.82-5.25-12.5,5.59-8.56-.42,11.8,16.25,11.5.52,0,3.24-1.49,4.5-1.5,1.29,0,14,7.39,16-13,3.65,3.63,2.39,10-.75,13.75-5.34,6.36-12.54,4.23-14.5,4.25Z"/>
            <path class="cls-2" d="M128.97,173.06c3.59,3.25,5.22,4.35,4,12.25-.3,1.95-2.79.92-1,3.75-13.84-9.88-17.51,5.51-22.5-7.75-2.82-7.5-.83-14-1-15.5-.1-.91-5.4-13.91-3.75-14.25,4.54,9.49,13.59,20.09,24.25,21.5Z"/>
            <path class="cls-1" d="M190.47,241.06c-3.4,15.27-.47,12.16-4,6.75-6.13-9.39-17.95-15.74-24-35.25,4.21,5.85,21.68,16.79,24,20.75.92,1.57,1.23,8.2,4,7.75Z"/>
            <path class="cls-2" d="M238.97,260.06c-3.03.36-5.94.58-9,.5l11.25-19c2.85-.93-1.55,16.84-2.25,18.5Z"/>
            <path class="cls-10" d="M219.47,249.06c.13,1.31.53,1.77,0,2.5-.29-.15-2.08-.08-6-2.5l3.75-19.5c.96,6.47,1.6,13,2.25,19.5Z"/>
            <path class="cls-1" d="M156.47,210.06c-1.93-1.65-3.67-2.49-5.5-4.5-.39-1.97,2.44-5.12,3.75-9.5.38,4.81.01,9.39,1.75,14Z"/>
            <path class="cls-2" d="M223.97,253.56c-.19-.15-.53.11-4.5-2,.53-.73.13-1.19,0-2.5,3.2-2.11,6.14,3.4,4.5,4.5Z"/>
            <g>
              <path class="cls-5" d="M158.97,258.06c.09.14.39,2.5,2,1.75-.54-.73-1.33-1.18-2-1.75-7.64-12.56-14.31-32.32-13.25-47,5.31,26.86,7.77,47.19,34.25,60-5.31-.28-10.24-.86-15.5-1.5-.77-2.63-5.38-2.73-12.25-7.5-20.65-14.34-29.55-47.61-22.5-71-4.17,31.55,6.52,47.48,29.25,67Z"/>
              <path class="cls-10" d="M130.22,223.06c6.63,17.04,14.81,24.87,27,37.5-13.41-7.5-24.7-22.12-27-37.5Z"/>
              <path class="cls-10" d="M158.97,258.06c.67.57,1.46,1.02,2,1.75-1.61.75-1.91-1.61-2-1.75Z"/>
            </g>
            <g>
              <path class="cls-18" d="M163.47,157.56c-17.73,17.05-49.36,8.6-51-21-.45-8.08,1.4-17.73,5-25,6.62-13.35,22.34-21.33,36.75-16,18.71,6.92,27.26,44.69,9.25,62Z"/>
              <g>
                <path class="cls-18" d="M226.47,163.56c-20.04-7.26-24.43-36.07-15-54.5,10.03-19.6,32.02-19.65,45.5-3.25,22.05,26.82,5.14,70.66-30.5,57.75Z"/>
                <path class="cls-12" d="M244.22,107.06c4.72-2.18,13.21,18.68,10.5,19-3.29-1.08-14.39-17.2-10.5-19Z"/>
              </g>
            </g>
          </g>
        </g>
      </g>
    </g>
  </g>
</svg>